<svg xmlns="http://www.w3.org/2000/svg" viewBox="0 0 264.58332 230.94816" fill="none">
  <path
    d="m 263.83714,306.59003 21.93313,-37.99441 c 1.2377,-2.12998 0.48933,-4.83565 -1.61189,-6.07335 -2.1012,-1.23768 -4.83565,-0.5181 -6.04456,1.61189 l -22.22097,38.48374 c -16.95357,-7.74281 -36.03711,-12.06035 -56.55987,-12.06035 -20.52274,0 -39.60629,4.31754 -56.55986,12.06035 l -22.22097,-38.48374 c -1.2377,-2.12999 -3.94336,-2.84957 -6.07335,-1.61189 -2.13,1.2377 -2.84959,3.94337 -1.61189,6.07335 l 21.93314,37.99441 C 96.978343,327.084 71.360891,365.36624 67.129701,410.18238 H 331.53627 C 327.30507,365.36624 301.68761,327.084 263.83714,306.59003 Z m -125.20887,66.46144 c -6.13092,0 -11.0817,-4.97957 -11.0817,-11.08169 0,-6.13093 4.97957,-11.0817 11.0817,-11.0817 6.13092,0 11.08171,4.97956 11.08171,11.0817 0.0289,6.10212 -4.95079,11.08169 -11.08171,11.08169 z m 121.38064,0 c -6.13091,0 -11.08172,-4.97957 -11.08172,-11.08169 0,-6.13093 4.97958,-11.0817 11.08172,-11.0817 6.13093,0 11.0817,4.97956 11.0817,11.0817 0.0288,6.10212 -4.95077,11.08169 -11.0817,11.08169 z"
    transform="translate(-66.970994,-261.91674)"
    fill="#32de84"
  />
</svg>
